<svg width="56" height="56" viewBox="0 0 56 56" fill="none" xmlns="http://www.w3.org/2000/svg">
<rect width="56" height="56" rx="10" fill="url(#paint0_linear)"/>
<mask id="mask0" mask-type="alpha" maskUnits="userSpaceOnUse" x="-23" y="-3" width="42" height="61">
<rect width="42" height="61" transform="matrix(-1 0 0 1 19 -3)" fill="#C4C4C4"/>
</mask>
<g mask="url(#mask0)">
<path d="M12.092 34.268H26.132L29.156 41H31.928L20.408 15.8H17.78L6.26 41H9.068L12.092 34.268ZM13.064 32.108L19.112 18.572L25.16 32.108H13.064Z" fill="#E1FAFF"/>
</g>
<mask id="mask1" mask-type="alpha" maskUnits="userSpaceOnUse" x="37" y="-3" width="42" height="61">
<rect x="37" y="-3" width="42" height="61" fill="#C4C4C4"/>
</mask>
<g mask="url(#mask1)">
<path d="M43.908 34.268H29.868L26.844 41H24.072L35.592 15.8H38.22L49.74 41H46.932L43.908 34.268ZM42.936 32.108L36.888 18.572L30.84 32.108H42.936Z" fill="#E1FAFF"/>
</g>
<defs>
<linearGradient id="paint0_linear" x1="-6.5" y1="3" x2="52.5" y2="67.5" gradientUnits="userSpaceOnUse">
<stop stop-color="#007089"/>
<stop offset="0.25061" stop-color="#0098A4"/>
<stop offset="0.507817" stop-color="#00C0C0"/>
<stop offset="0.734911" stop-color="#35DDBA"/>
<stop offset="1" stop-color="#73FFB3"/>
</linearGradient>
</defs>
</svg>
