<svg width="220" height="72" viewBox="0 0 220 72" fill="none" xmlns="http://www.w3.org/2000/svg">
<path d="M30.98 35.004C32.636 35.364 33.908 36.084 34.796 37.164C35.708 38.22 36.164 39.588 36.164 41.268C36.164 43.428 35.36 45.096 33.752 46.272C32.168 47.424 29.816 48 26.696 48H15.104V22.8H25.976C28.784 22.8 30.956 23.364 32.492 24.492C34.052 25.62 34.832 27.216 34.832 29.28C34.832 30.672 34.484 31.86 33.788 32.844C33.116 33.804 32.18 34.524 30.98 35.004ZM17.768 24.996V34.14H25.796C27.836 34.14 29.408 33.756 30.512 32.988C31.616 32.196 32.168 31.056 32.168 29.568C32.168 28.08 31.616 26.952 30.512 26.184C29.408 25.392 27.836 24.996 25.796 24.996H17.768ZM26.66 45.804C28.916 45.804 30.62 45.42 31.772 44.652C32.924 43.884 33.5 42.684 33.5 41.052C33.5 37.908 31.22 36.336 26.66 36.336H17.768V45.804H26.66ZM59.4526 48L53.6926 39.9C53.0446 39.972 52.3726 40.008 51.6766 40.008H44.9086V48H42.2446V22.8H51.6766C54.8926 22.8 57.4126 23.568 59.2366 25.104C61.0606 26.64 61.9726 28.752 61.9726 31.44C61.9726 33.408 61.4686 35.076 60.4606 36.444C59.4766 37.788 58.0606 38.76 56.2126 39.36L62.3686 48H59.4526ZM51.6046 37.74C54.1006 37.74 56.0086 37.188 57.3286 36.084C58.6486 34.98 59.3086 33.432 59.3086 31.44C59.3086 29.4 58.6486 27.84 57.3286 26.76C56.0086 25.656 54.1006 25.104 51.6046 25.104H44.9086V37.74H51.6046ZM86.0803 45.696V48H68.2603V22.8H85.5403V25.104H70.9243V34.068H83.9563V36.336H70.9243V45.696H86.0803Z" fill="black"/>
<path d="M144.104 22.8H146.768V45.696H160.88V48H144.104V22.8ZM181.178 41.268H167.138L164.114 48H161.342L172.862 22.8H175.49L187.01 48H184.202L181.178 41.268ZM180.206 39.108L174.158 25.572L168.11 39.108H180.206ZM205.822 48L197.686 36.912L189.586 48H186.526L196.102 35.04L187.138 22.8H190.198L197.794 33.096L205.354 22.8H208.234L199.306 34.968L208.918 48H205.822Z" fill="black"/>
<mask id="mask0" mask-type="alpha" maskUnits="userSpaceOnUse" x="124" y="5" width="42" height="61">
<rect x="124" y="5" width="42" height="61" fill="#C4C4C4"/>
</mask>
<g mask="url(#mask0)">
<path d="M130.908 42.268H116.868L113.844 49H111.072L122.592 23.8H125.22L136.74 49H133.932L130.908 42.268ZM129.936 40.108L123.888 26.572L117.84 40.108H129.936Z" fill="black"/>
</g>
<mask id="mask1" mask-type="alpha" maskUnits="userSpaceOnUse" x="64" y="5" width="42" height="61">
<rect width="42" height="61" transform="matrix(-1 0 0 1 106 5)" fill="#C4C4C4"/>
</mask>
<g mask="url(#mask1)">
<path d="M99.092 42.268H113.132L116.156 49H118.928L107.408 23.8H104.78L93.26 49H96.068L99.092 42.268ZM100.064 40.108L106.112 26.572L112.16 40.108H100.064Z" fill="black"/>
</g>
</svg>
